<svg width="139" height="22" viewBox="0 0 139 22" fill="none" xmlns="http://www.w3.org/2000/svg">
<g id="Group 25">
<path id="Vector" d="M10.946 5.33081C7.84058 5.33081 5.33569 7.83569 5.33569 10.9412C5.33569 14.0466 7.84058 16.5515 10.946 16.5515C14.0515 16.5515 16.5564 14.0466 16.5564 10.9412C16.5564 7.83569 14.0515 5.33081 10.946 5.33081ZM10.946 14.5886C8.93921 14.5886 7.29858 12.9529 7.29858 10.9412C7.29858 8.92944 8.93433 7.2937 10.946 7.2937C12.9578 7.2937 14.5935 8.92944 14.5935 10.9412C14.5935 12.9529 12.9529 14.5886 10.946 14.5886ZM18.0945 5.10132C18.0945 5.82886 17.5085 6.40991 16.7859 6.40991C16.0584 6.40991 15.4773 5.82397 15.4773 5.10132C15.4773 4.37866 16.0632 3.79272 16.7859 3.79272C17.5085 3.79272 18.0945 4.37866 18.0945 5.10132ZM21.8103 6.42944C21.7273 4.67651 21.3269 3.12378 20.0427 1.84448C18.7634 0.565185 17.2107 0.164795 15.4578 0.0769043C13.6511 -0.0256348 8.23608 -0.0256348 6.42944 0.0769043C4.6814 0.159912 3.12866 0.560303 1.84448 1.8396C0.560303 3.1189 0.164795 4.67163 0.0769043 6.42456C-0.0256348 8.2312 -0.0256348 13.6462 0.0769043 15.4529C0.159912 17.2058 0.560303 18.7585 1.84448 20.0378C3.12866 21.3171 4.67651 21.7175 6.42944 21.8054C8.23608 21.908 13.6511 21.908 15.4578 21.8054C17.2107 21.7224 18.7634 21.322 20.0427 20.0378C21.322 18.7585 21.7224 17.2058 21.8103 15.4529C21.9128 13.6462 21.9128 8.23608 21.8103 6.42944ZM19.4763 17.3914C19.0955 18.3484 18.3582 19.0857 17.3962 19.4714C15.9558 20.0427 12.5378 19.9109 10.946 19.9109C9.35425 19.9109 5.9314 20.0378 4.49585 19.4714C3.53882 19.0906 2.80151 18.3533 2.41577 17.3914C1.84448 15.9509 1.97632 12.533 1.97632 10.9412C1.97632 9.34937 1.84937 5.92651 2.41577 4.49097C2.79663 3.53394 3.53394 2.79663 4.49585 2.41089C5.93628 1.8396 9.35425 1.97144 10.946 1.97144C12.5378 1.97144 15.9607 1.84448 17.3962 2.41089C18.3533 2.79175 19.0906 3.52905 19.4763 4.49097C20.0476 5.9314 19.9158 9.34937 19.9158 10.9412C19.9158 12.533 20.0476 15.9558 19.4763 17.3914Z" fill="white"/>
<path id="Vector_2" d="M97.5312 0H80.3438C79.7221 0 79.126 0.24693 78.6865 0.686469C78.2469 1.12601 78 1.72215 78 2.34375V19.5312C78 20.1529 78.2469 20.749 78.6865 21.1885C79.126 21.6281 79.7221 21.875 80.3438 21.875H87.0454V14.438H83.9692V10.9375H87.0454V8.26953C87.0454 5.23486 88.8521 3.55859 91.6191 3.55859C92.9443 3.55859 94.3301 3.79492 94.3301 3.79492V6.77344H92.8032C91.2988 6.77344 90.8296 7.70703 90.8296 8.66455V10.9375H94.188L93.6509 14.438H90.8296V21.875H97.5312C98.1529 21.875 98.749 21.6281 99.1885 21.1885C99.6281 20.749 99.875 20.1529 99.875 19.5312V2.34375C99.875 1.72215 99.6281 1.12601 99.1885 0.686469C98.749 0.24693 98.1529 0 97.5312 0Z" fill="white"/>
<path id="Vector_3" d="M58.5312 0H41.3438C40.0498 0 39 1.0498 39 2.34375V19.5312C39 20.8252 40.0498 21.875 41.3438 21.875H58.5312C59.8252 21.875 60.875 20.8252 60.875 19.5312V2.34375C60.875 1.0498 59.8252 0 58.5312 0ZM56.1436 7.75391C56.1533 7.89062 56.1533 8.03223 56.1533 8.16895C56.1533 12.4023 52.9307 17.2803 47.042 17.2803C45.2256 17.2803 43.541 16.7529 42.125 15.8447C42.3838 15.874 42.6328 15.8838 42.8965 15.8838C44.3955 15.8838 45.7725 15.376 46.8711 14.5166C45.4648 14.4873 44.2832 13.5645 43.8779 12.2949C44.3711 12.3682 44.8154 12.3682 45.3232 12.2363C43.8584 11.9385 42.7598 10.6494 42.7598 9.0918V9.05273C43.1846 9.29199 43.6826 9.43848 44.2051 9.45801C43.7658 9.16584 43.4058 8.76947 43.157 8.30427C42.9082 7.83908 42.7784 7.31953 42.7793 6.79199C42.7793 6.19629 42.9355 5.64941 43.2139 5.17578C44.791 7.11914 47.1592 8.38867 49.8154 8.52539C49.3613 6.35254 50.9873 4.58984 52.9404 4.58984C53.8633 4.58984 54.6934 4.97559 55.2793 5.60059C56.002 5.46387 56.6953 5.19531 57.3105 4.8291C57.0713 5.57129 56.5684 6.19629 55.9043 6.5918C56.5488 6.52344 57.1738 6.34277 57.75 6.09375C57.3154 6.7334 56.7686 7.2998 56.1436 7.75391Z" fill="white"/>
<path id="Vector_4" d="M126.121 8.30566L130.77 10.9473L126.121 13.5889V8.30566ZM138.875 2.34375V19.5312C138.875 20.8252 137.825 21.875 136.531 21.875H119.344C118.05 21.875 117 20.8252 117 19.5312V2.34375C117 1.0498 118.05 0 119.344 0H136.531C137.825 0 138.875 1.0498 138.875 2.34375ZM136.824 10.9521C136.824 10.9521 136.824 8.04199 136.453 6.64551C136.248 5.87402 135.647 5.26855 134.881 5.06348C133.499 4.6875 127.938 4.6875 127.938 4.6875C127.938 4.6875 122.376 4.6875 120.994 5.06348C120.228 5.26855 119.627 5.87402 119.422 6.64551C119.051 8.03711 119.051 10.9521 119.051 10.9521C119.051 10.9521 119.051 13.8623 119.422 15.2588C119.627 16.0303 120.228 16.6113 120.994 16.8164C122.376 17.1875 127.938 17.1875 127.938 17.1875C127.938 17.1875 133.499 17.1875 134.881 16.8115C135.647 16.6064 136.248 16.0254 136.453 15.2539C136.824 13.8623 136.824 10.9521 136.824 10.9521Z" fill="white"/>
</g>
</svg>
